<svg width="668" height="503" viewBox="0 0 668 503" fill="none" xmlns="http://www.w3.org/2000/svg">
<rect width="668" height="503" fill="white"/>
<path d="M391.998 246.306C394.759 246.306 397.018 244.064 396.805 241.311C395.99 230.809 392.617 220.667 386.97 211.861C380.432 201.665 371.14 193.718 360.268 189.026C349.395 184.333 337.432 183.105 325.89 185.498C314.348 187.89 303.746 193.795 295.425 202.466C287.104 211.136 281.437 222.184 279.141 234.211C276.845 246.237 278.024 258.704 282.527 270.033C287.031 281.362 294.657 291.045 304.442 297.857C312.837 303.702 322.497 307.209 332.504 308.087C335.255 308.329 337.498 306.068 337.498 303.306L337.498 251.306C337.498 248.545 339.737 246.306 342.498 246.306H391.998Z" fill="#121212"/>
<path d="M342.659 167.977C342.91 165.021 340.731 162.396 337.766 162.327C328.738 162.117 319.728 163.514 311.121 166.471C300.815 170.011 291.301 175.715 283.159 183.236C275.017 190.756 268.416 199.936 263.758 210.217C259.099 220.499 256.479 231.668 256.058 243.046C255.637 254.423 257.424 265.772 261.309 276.402C265.194 287.032 271.097 296.722 278.659 304.883C286.221 313.044 295.284 319.505 305.297 323.875C313.647 327.518 322.511 329.643 331.512 330.174C334.49 330.35 336.883 327.884 336.851 324.902V324.902C336.818 321.914 334.365 319.542 331.384 319.335C323.784 318.805 316.305 316.97 309.249 313.891C300.524 310.084 292.627 304.454 286.039 297.344C279.45 290.233 274.307 281.79 270.922 272.528C267.537 263.266 265.98 253.378 266.347 243.465C266.714 233.552 268.996 223.821 273.055 214.862C277.114 205.904 282.866 197.905 289.96 191.353C297.054 184.801 305.343 179.831 314.323 176.746C321.573 174.255 329.152 173.035 336.755 173.122C339.758 173.156 342.404 170.968 342.659 167.977V167.977Z" fill="#121212"/>
<path d="M241.961 237.661C239.165 237.218 236.527 239.127 236.235 241.942C234.905 254.729 236.078 267.672 239.705 280.036C243.814 294.042 250.969 306.955 260.653 317.841C270.336 328.727 282.307 337.314 295.697 342.979C307.505 347.975 320.157 350.589 332.934 350.692C335.775 350.715 337.973 348.298 337.847 345.461V345.461C337.721 342.622 335.316 340.44 332.475 340.399C321.216 340.239 310.075 337.901 299.666 333.498C287.674 328.424 276.954 320.734 268.282 310.985C259.61 301.236 253.202 289.672 249.522 277.129C246.323 266.222 245.256 254.812 246.362 243.528C246.638 240.719 244.749 238.103 241.961 237.661V237.661Z" fill="#121212"/>
<path d="M346.528 435.103C346.655 434.09 346.75 433.077 346.75 432C346.75 430.923 346.655 429.91 346.528 428.897L353.21 423.672C353.812 423.197 353.97 422.342 353.59 421.645L347.257 410.688C346.972 410.182 346.433 409.897 345.863 409.897C345.673 409.897 345.483 409.928 345.325 409.992L337.44 413.158C335.793 411.892 334.02 410.847 332.088 410.055L330.885 401.663C330.79 400.903 330.125 400.333 329.333 400.333H316.667C315.875 400.333 315.21 400.903 315.115 401.663L313.912 410.055C311.98 410.847 310.207 411.923 308.56 413.158L300.675 409.992C300.485 409.928 300.295 409.897 300.105 409.897C299.567 409.897 299.028 410.182 298.743 410.688L292.41 421.645C291.998 422.342 292.188 423.197 292.79 423.672L299.472 428.897C299.345 429.91 299.25 430.955 299.25 432C299.25 433.045 299.345 434.09 299.472 435.103L292.79 440.328C292.188 440.803 292.03 441.658 292.41 442.355L298.743 453.312C299.028 453.818 299.567 454.103 300.137 454.103C300.327 454.103 300.517 454.072 300.675 454.008L308.56 450.842C310.207 452.108 311.98 453.153 313.912 453.945L315.115 462.337C315.21 463.097 315.875 463.667 316.667 463.667H329.333C330.125 463.667 330.79 463.097 330.885 462.337L332.088 453.945C334.02 453.153 335.793 452.077 337.44 450.842L345.325 454.008C345.515 454.072 345.705 454.103 345.895 454.103C346.433 454.103 346.972 453.818 347.257 453.312L353.59 442.355C353.97 441.658 353.812 440.803 353.21 440.328L346.528 435.103V435.103ZM340.258 429.688C340.385 430.67 340.417 431.335 340.417 432C340.417 432.665 340.353 433.362 340.258 434.312L339.815 437.89L342.633 440.107L346.053 442.767L343.837 446.598L339.815 444.983L336.522 443.653L333.672 445.807C332.31 446.82 331.012 447.58 329.713 448.118L326.357 449.48L325.85 453.058L325.217 457.333H320.783L320.182 453.058L319.675 449.48L316.318 448.118C314.957 447.548 313.69 446.82 312.423 445.87L309.542 443.653L306.185 445.015L302.163 446.63L299.947 442.798L303.367 440.138L306.185 437.922L305.742 434.343C305.647 433.362 305.583 432.633 305.583 432C305.583 431.367 305.647 430.638 305.742 429.688L306.185 426.11L303.367 423.893L299.947 421.233L302.163 417.402L306.185 419.017L309.478 420.347L312.328 418.193C313.69 417.18 314.988 416.42 316.287 415.882L319.643 414.52L320.15 410.942L320.783 406.667H325.185L325.787 410.942L326.293 414.52L329.65 415.882C331.012 416.452 332.278 417.18 333.545 418.13L336.427 420.347L339.783 418.985L343.805 417.37L346.022 421.202L342.633 423.893L339.815 426.11L340.258 429.688ZM323 419.333C316.002 419.333 310.333 425.002 310.333 432C310.333 438.998 316.002 444.667 323 444.667C329.998 444.667 335.667 438.998 335.667 432C335.667 425.002 329.998 419.333 323 419.333ZM323 438.333C319.517 438.333 316.667 435.483 316.667 432C316.667 428.517 319.517 425.667 323 425.667C326.483 425.667 329.333 428.517 329.333 432C329.333 435.483 326.483 438.333 323 438.333Z" fill="#BCBCBC"/>
<path d="M237.667 425.667H212.333C210.592 425.667 209.167 427.092 209.167 428.833C209.167 430.575 210.592 432 212.333 432H237.667C239.408 432 240.833 430.575 240.833 428.833C240.833 427.092 239.408 425.667 237.667 425.667ZM247.167 403.5H244V400.333C244 398.592 242.575 397.167 240.833 397.167C239.092 397.167 237.667 398.592 237.667 400.333V403.5H212.333V400.333C212.333 398.592 210.908 397.167 209.167 397.167C207.425 397.167 206 398.592 206 400.333V403.5H202.833C199.318 403.5 196.5 406.35 196.5 409.833V454.167C196.5 457.65 199.318 460.5 202.833 460.5H247.167C250.65 460.5 253.5 457.65 253.5 454.167V409.833C253.5 406.35 250.65 403.5 247.167 403.5ZM244 454.167H206C204.258 454.167 202.833 452.742 202.833 451V419.333H247.167V451C247.167 452.742 245.742 454.167 244 454.167ZM228.167 438.333H212.333C210.592 438.333 209.167 439.758 209.167 441.5C209.167 443.242 210.592 444.667 212.333 444.667H228.167C229.908 444.667 231.333 443.242 231.333 441.5C231.333 439.758 229.908 438.333 228.167 438.333Z" fill="#BCBCBC"/>
<path d="M421 432C427.998 432 433.667 426.332 433.667 419.333C433.667 412.335 427.998 406.667 421 406.667C414.002 406.667 408.333 412.335 408.333 419.333C408.333 426.332 414.002 432 421 432ZM421 413C424.483 413 427.333 415.85 427.333 419.333C427.333 422.817 424.483 425.667 421 425.667C417.517 425.667 414.667 422.817 414.667 419.333C414.667 415.85 417.517 413 421 413ZM421 435.167C412.545 435.167 395.667 439.41 395.667 447.833V454.167C395.667 455.908 397.092 457.333 398.833 457.333H443.167C444.908 457.333 446.333 455.908 446.333 454.167V447.833C446.333 439.41 429.455 435.167 421 435.167ZM440 451H402V447.865C402.633 445.585 412.45 441.5 421 441.5C429.55 441.5 439.367 445.585 440 447.833V451Z" fill="#BCBCBC"/>
</svg>
